# xmcd CD database file
#
# Track frame offsets:
#	150
#	23530
#	51345
#	72967
#	94572
#	116120
#	142005
#
# Disc length: 2196 seconds
#
# Revision: 0
# Processed by: cddbd v1.5.2PL0 Copyright (c) Steve Scherf et al.
# Submitted via: CDex 1.70beta2
#
DISCID=5d089207
DTITLE=Norman Brown - The Moods of Norman Brown
DYEAR=1996
DGENRE=Jazz
TTITLE0=Just Between Us
TTITLE1=Stormin'
TTITLE2=After the Storm
TTITLE3=Lydian
TTITLE4=That's the Way Love Goes
TTITLE5=Better Days Ahead
TTITLE6=After the Love is Gone
EXTD=YEAR: 1996
EXTT0=
EXTT1=
EXTT2=
EXTT3=
EXTT4=
EXTT5=
EXTT6=
PLAYORDER=
